<?xml version="1.0" encoding="UTF-8"?>
<svg xmlns="http://www.w3.org/2000/svg" viewBox="0 0 100 100">
  <defs>
    <linearGradient id="r-start-gradient" x1="80" y1="14" x2="10" y2="86" gradientUnits="userSpaceOnUse">
      <stop offset="0" stop-color="#024b68"/>
      <stop offset=".32" stop-color="#0b7a93"/>
      <stop offset=".57" stop-color="#1198af"/>
      <stop offset=".71" stop-color="#14a4ba"/>
    </linearGradient>
  </defs>
  <g transform="translate(4 5)">
    <path fill="url(#r-start-gradient)" d="M2.44,29.88c-11.59,26.1,21.48,52.52,27.22,55.34,21.52,10.59,48.04-1.99,59.51-27.5C93.5,48.09,104.2-3.34,68.21.17,36.7,3.24,5.47,23.07,2.44,29.88Z"/>
    <path fill="#ffffff" d="M66.31,61.38c-3.66-4.46-8.08-9.71-11.31-13.08,4.87-1.94,8.07-6.23,8.07-10.97,0-6.64-6.15-12.05-13.73-12.05h-18.34c-2.02,0-3.66,1.64-3.66,3.66s1.64,3.66,3.66,3.66h18.34c3.05,0,5.54,2.11,5.54,4.73s-2.49,4.75-5.54,4.75h-18.33c-2.02.01-3.66,1.65-3.66,3.68s1.64,3.66,3.66,3.66l7.96-.02c3.11,0,5.67.61,7.59,1.84,2.2,1.43,8.2,8.56,12.26,13.54l2.84,3.52c.73.9,1.84,1.47,3.09,1.47,2.2,0,3.99-1.79,3.99-3.99,0-.96-.34-1.85-.91-2.54l-1.52-1.86Z"/>
  </g>
</svg>
